<svg id="Layer_1" data-name="Layer 1" xmlns="http://www.w3.org/2000/svg" xmlns:xlink="http://www.w3.org/1999/xlink" viewBox="0 0 576 576"><defs><style>.cls-1{fill:transparent;}.cls-2,.cls-3{fill:#000;}.cls-2{opacity:0.0;}.cls-4{fill:#f7941d;}</style><linearGradient id="linear-gradient" x1="612.27" y1="-308" x2="1150.31" y2="-308" gradientTransform="translate(596 1172) rotate(-90)" gradientUnits="userSpaceOnUse"><stop offset="0" stop-color="#2b3990"/><stop offset="0.62" stop-color="#0f84cd"/><stop offset="1" stop-color="#00aeef"/></linearGradient></defs><title>app</title><path class="cls-1" d="M116.55,21.69h342.9a97.75,97.75,0,0,1,83.73,47.65A96.73,96.73,0,0,1,557,119.26v342.9a97.84,97.84,0,0,1-97.57,97.57H116.55A97.85,97.85,0,0,1,19,462.16V119.26C19,69.46,56.81,28,105.15,22.37A95.36,95.36,0,0,1,116.55,21.69Z"/><path class="cls-2" d="M116.55,21.69h342.9a97.75,97.75,0,0,1,83.73,47.65c-24.08,59.38-57.5,119.85-99.91,178.06C324.61,410.27,167.63,511.62,39.38,521.68A96.93,96.93,0,0,1,19,462.16V119.26C19,69.46,56.81,28,105.15,22.37A95.36,95.36,0,0,1,116.55,21.69Z"/><path class="cls-3" d="M254.17,119.14h-52.5l-114.5,337h45l44-140h146Zm-45,99.5c6.5-20.5,12-41,17-61h1c5,19.5,10,39.5,17.5,61.5l21,63.56H187.49Zm289.66-83.16v39H454.1L322.64,456.11,281.5,330.5h45.65l6.45,18.66,97.84-212.69.45-1Z"/><polygon class="cls-4" points="498.83 135.49 498.83 174.44 454.1 174.44 322.64 456.11 281.5 330.5 327.15 330.5 333.6 349.16 431.44 136.47 431.89 135.49 498.83 135.49"/></svg>